<svg xmlns:xlink="http://www.w3.org/1999/xlink" xmlns="http://www.w3.org/2000/svg" viewBox="0 0 24 24" width="18" height="18" fill="currentColor" class="flex-shrink-0 mx-2 cursor-pointer text-grays-200 hover:text-grays-300"><path d="M16.545 14.954a1.124 1.124 0 1 1-1.59 1.591L12 13.591l-2.955 2.954a1.122 1.122 0 0 1-1.59 0 1.124 1.124 0 0 1 0-1.59L10.409 12 7.455 9.045a1.124 1.124 0 1 1 1.59-1.59L12 10.408l2.955-2.955a1.124 1.124 0 1 1 1.59 1.591L13.591 12l2.954 2.954ZM12 1.5C6.21 1.5 1.5 6.21 1.5 12S6.21 22.5 12 22.5 22.5 17.79 22.5 12 17.79 1.5 12 1.5Z" fill="#BEC6CC"></path></svg>